<?xml version="1.0" encoding="UTF-8"?>
<svg width="27px" height="28px" viewBox="0 0 27 28" version="1.1" xmlns="http://www.w3.org/2000/svg" xmlns:xlink="http://www.w3.org/1999/xlink">
    <!-- Generator: Sketch 55 (78076) - https://sketchapp.com -->
    <title>ui-social-github</title>
    <desc>Created with Sketch.</desc>
    <defs>
        <linearGradient x1="19.6387559%" y1="2.02499917e-06%" x2="107.070074%" y2="88.3118118%" id="linearGradient-1">
            <stop stop-color="#62C5F1" offset="0%"></stop>
            <stop stop-color="#50ADE2" offset="100%"></stop>
        </linearGradient>
    </defs>
    <g id="Page-1" stroke="none" stroke-width="1" fill="none" fill-rule="evenodd">
        <g id="ui-social-github">
            <path d="M17.3339,3.99228012 C21.697,6.51130012 23.8785,7.77081012 24.9123,9.21346012 C26.9629,12.0751001 26.9629,15.9249001 24.9123,18.7865001 C23.8785,20.2292001 21.697,21.4887001 17.3339,24.0077001 C12.9708,26.5267001 10.7893,27.7862001 9.023,27.9602001 C5.5195,28.3053001 2.1854,26.3803001 0.732479,23.1737001 C-3.13165382e-07,21.5571001 -2.20219382e-07,19.0380001 8.8817842e-15,14 C2.20219618e-07,8.96196012 3.12682618e-07,6.44294012 0.73248,4.82632012 C2.1854,1.61966012 5.5195,-0.305280879 9.02301,0.0397855213 C10.7893,0.213748121 12.9708,1.47326012 17.3339,3.99228012 Z" id="Path-Copy" fill="url(#linearGradient-1)" fill-rule="nonzero" opacity="0.15"></path>
            <path d="M10.8831557,19 C10.6229749,18.8962793 10.4928845,18.7811317 10.4928845,18.6545572 C10.4928845,18.4849123 10.4867315,18.0344303 10.4832156,17.4371571 C8.4918654,17.8696198 8.07170853,16.4773008 8.07170853,16.4773008 C7.74604301,15.6501719 7.27666275,15.4304246 7.27666275,15.4304246 C6.62665019,14.9860955 7.32588615,14.9948854 7.32588615,14.9948854 C8.04445987,15.0458668 8.42242525,15.7327969 8.42242525,15.7327969 C9.06101095,16.8266991 10.0977788,16.5107024 10.5060693,16.3278726 C10.5711145,15.8650848 10.7557022,15.5495277 10.9605067,15.3706533 C9.37085466,15.190021 7.69945658,14.5756076 7.69945658,11.8322821 C7.69945658,11.0508606 7.97853567,10.4118354 8.43648908,9.91125104 C8.36265398,9.73017925 8.11697648,9.00237615 8.50636872,8.01658969 C8.50636872,8.01658969 9.10759738,7.82409104 10.4753047,8.75054572 C11.0462082,8.59144867 11.6588637,8.51233963 12.2675638,8.50926317 C12.8753848,8.51233963 13.4880404,8.59144867 14.0598229,8.75054572 C15.4266512,7.82409104 16.0265613,8.01658969 16.0265613,8.01658969 C16.4172721,9.00237615 16.1715946,9.73017925 16.0977595,9.91125104 C16.5565919,10.4118354 16.833913,11.0508606 16.833913,11.8322821 C16.833913,14.5826395 15.1598779,15.1878236 13.5649519,15.3649399 C13.8220563,15.5860057 14.051033,16.0228634 14.051033,16.6908952 C14.051033,17.647675 14.0422431,18.4198671 14.0422431,18.6545572 C14.0422431,18.7823037 13.9133247,18.8971583 13.6554878,18.999121 L10.8831557,19 Z" id="Fill-1" fill="#50ABE0"></path>
        </g>
    </g>
</svg>