<?xml version="1.0" encoding="UTF-8"?>
<svg width="28px" height="28px" viewBox="0 0 28 28" version="1.1" xmlns="http://www.w3.org/2000/svg" xmlns:xlink="http://www.w3.org/1999/xlink">
    <!-- Generator: Sketch 55 (78076) - https://sketchapp.com -->
    <title>ui-social-linkedin</title>
    <desc>Created with Sketch.</desc>
    <defs>
        <linearGradient x1="19.6388966%" y1="2.02499917e-06%" x2="107.070212%" y2="88.3118118%" id="linearGradient-1">
            <stop stop-color="#62C5F1" offset="0%"></stop>
            <stop stop-color="#50ADE2" offset="100%"></stop>
        </linearGradient>
    </defs>
    <g id="Page-1" stroke="none" stroke-width="1" fill="none" fill-rule="evenodd">
        <g id="ui-social-linkedin" fill-rule="nonzero">
            <path d="M18.2343,3.99228 C22.5974,6.5113 24.7789,7.77081 25.8127,9.21346 C27.8633,12.0751 27.8633,15.9249 25.8127,18.7865 C24.7789,20.2292 22.5974,21.4887 18.2343,24.0077 C13.8713,26.5267 11.6897,27.7862 9.92346,27.9602 C6.41995,28.3053 3.08585,26.3803 1.63293,23.1737 C0.900451,21.5571 0.900451,19.038 0.900452,13.9999999 C0.900452,8.96196 0.900452,6.44294 1.63293,4.82632 C3.08585,1.61966 6.41995,-0.305281 9.92346,0.0397854 C11.6897,0.213748 13.8713,1.47326 18.2343,3.99228 Z" id="Path" fill="url(#linearGradient-1)" opacity="0.15"></path>
            <path d="M10.0567,17.9438 L7.95671,17.9438 L7.95671,11.2501 L10.0567,11.2501 L10.0567,17.9438 Z M9.00671,10.3313 C8.35046,10.3313 7.78171,9.80635 7.78171,9.10635 C7.78171,8.4501 8.30671,7.88135 9.00671,7.88135 C9.66296,7.88135 10.2317,8.40635 10.2317,9.10635 C10.2317,9.80635 9.66296,10.3313 9.00671,10.3313 Z M17.8442,17.9438 L15.788,17.9438 L15.788,14.7063 C15.788,13.9188 15.788,12.9563 14.6942,12.9563 C13.6005,12.9563 13.4692,13.7876 13.4692,14.6626 L13.4692,17.9876 L11.413,17.9876 L11.413,11.2501 L13.338,11.2501 L13.338,12.1688 L13.3817,12.1688 C13.6442,11.6438 14.3442,11.0751 15.3505,11.0751 C17.4505,11.0751 17.8442,12.4751 17.8442,14.2688 L17.8442,17.9438 Z" id="Shape" fill="#50ABE0"></path>
        </g>
    </g>
</svg>