<?xml version="1.0" encoding="UTF-8"?>
<svg width="27px" height="28px" viewBox="0 0 27 28" version="1.1" xmlns="http://www.w3.org/2000/svg" xmlns:xlink="http://www.w3.org/1999/xlink">
    <!-- Generator: Sketch 55.1 (78136) - https://sketchapp.com -->
    <title>ui-social-youtube</title>
    <desc>Created with Sketch.</desc>
    <defs>
        <linearGradient x1="19.6387559%" y1="2.02499917e-06%" x2="107.070074%" y2="88.3118118%" id="linearGradient-1">
            <stop stop-color="#62C5F1" offset="0%"></stop>
            <stop stop-color="#50ADE2" offset="100%"></stop>
        </linearGradient>
    </defs>
    <g id="Page-1" stroke="none" stroke-width="1" fill="none" fill-rule="evenodd">
        <g id="ui-social-youtube" transform="translate(-0.500000, -0.500000)">
            <path d="M18.0839,4.49228006 C22.447,7.01130006 24.6285,8.27081006 25.6623,9.71346006 C27.7129,12.5751001 27.7129,16.4249001 25.6623,19.2865001 C24.6285,20.7292001 22.447,21.9887001 18.0839,24.5077001 C13.7208,27.0267001 11.5393,28.2862001 9.773,28.4602001 C6.2695,28.8053001 2.9354,26.8803001 1.482479,23.6737001 C0.75,22.0571001 0.75,19.5380001 0.75,14.4999999 C0.75,9.46196006 0.75,6.94294006 1.48248,5.32632006 C2.9354,2.11966006 6.2695,0.194719061 9.77301,0.539785461 C11.5393,0.713748061 13.7208,1.97326006 18.0839,4.49228006 Z" id="Path" fill="url(#linearGradient-1)" fill-rule="nonzero" opacity="0.15"></path>
            <g id="yt_icon_mono_light" transform="translate(5.500000, 9.000000)" fill="#50ABE0">
                <path d="M14.0335028,2.18378476 C14.3195694,3.25820699 14.3195694,5.49999588 14.3195694,5.49999588 C14.3195694,5.49999588 14.3195694,7.74170699 14.0335028,8.81628476 C13.8760806,9.40902921 13.4122917,9.87585143 12.8232806,10.0343625 C11.7557806,10.3222181 7.475125,10.3222181 7.475125,10.3222181 C7.475125,10.3222181 3.19446944,10.3222181 2.12696944,10.0343625 C1.53803611,9.87585143 1.07416944,9.40902921 0.916747222,8.81628476 C0.630680556,7.74170699 0.630680556,5.49999588 0.630680556,5.49999588 C0.630680556,5.49999588 0.630680556,3.25820699 0.916747222,2.18378476 C1.07416944,1.59096254 1.53803611,1.12414032 2.12696944,0.965706987 C3.19446944,0.677773654 7.475125,0.677773654 7.475125,0.677773654 C7.475125,0.677773654 11.7557806,0.677773654 12.8232806,0.965706987 C13.4122917,1.12414032 13.8760806,1.59096254 14.0335028,2.18378476 Z M6.075125,7.53536254 L9.65290278,5.50007365 L6.075125,3.46462921 L6.075125,7.53536254 Z" id="Combined-Shape"></path>
            </g>
        </g>
    </g>
</svg>