<?xml version="1.0" encoding="UTF-8"?>
<svg width="27px" height="28px" viewBox="0 0 27 28" version="1.1" xmlns="http://www.w3.org/2000/svg" xmlns:xlink="http://www.w3.org/1999/xlink">
    <!-- Generator: Sketch 55 (78076) - https://sketchapp.com -->
    <title>ui-social-twitter</title>
    <desc>Created with Sketch.</desc>
    <defs>
        <linearGradient x1="19.6387559%" y1="2.02499917e-06%" x2="107.070074%" y2="88.3118118%" id="linearGradient-1">
            <stop stop-color="#62C5F1" offset="0%"></stop>
            <stop stop-color="#50ADE2" offset="100%"></stop>
        </linearGradient>
    </defs>
    <g id="Page-1" stroke="none" stroke-width="1" fill="none" fill-rule="evenodd">
        <g id="ui-social-twitter" fill-rule="nonzero">
            <path d="M17.3339,3.99228 C21.697,6.5113 23.8785,7.77081 24.9123,9.21346 C26.9629,12.0751 26.9629,15.9249 24.9123,18.7865 C23.8785,20.2292 21.697,21.4887 17.3339,24.0077 C12.9708,26.5267 10.7893,27.7862 9.023,27.9602 C5.5195,28.3053 2.1854,26.3803 0.732479,23.1737 C-3.12924e-07,21.5571 -2.19978e-07,19.038 2.41390907e-10,13.9999999 C2.20461e-07,8.96196 3.12924e-07,6.44294 0.73248,4.82632 C2.1854,1.61966 5.5195,-0.305281 9.02301,0.0397854 C10.7893,0.213748 12.9708,1.47326 17.3339,3.99228 Z" id="Path" fill="url(#linearGradient-1)" opacity="0.15"></path>
            <path d="M19,9.66875 C18.475,9.8875 17.95,10.0625 17.3375,10.1062 C17.95,9.75625 18.3875,9.1875 18.6062,8.53125 C18.0375,8.88125 17.425,9.1 16.7687,9.23125 C16.2437,8.6625 15.5,8.3125 14.7125,8.3125 C13.1375,8.3125 11.825,9.58125 11.825,11.2 C11.825,11.4188 11.8687,11.6375 11.9125,11.8563 C9.50624,11.725 7.40624,10.5875 5.96249,8.8375 C5.69999,9.275 5.56874,9.75625 5.56874,10.2812 C5.56874,11.2875 6.09374,12.1625 6.83749,12.6875 C6.35624,12.6875 5.91874,12.5563 5.52499,12.3375 L5.52499,12.3812 C5.52499,13.7812 6.53124,14.9188 7.84374,15.1813 C7.58124,15.225 7.36249,15.2687 7.09999,15.2687 C6.92499,15.2687 6.74999,15.2687 6.57499,15.225 C6.92499,16.3625 8.01874,17.1937 9.24374,17.2375 C8.28124,18.025 7.01249,18.4625 5.65624,18.4625 C5.43749,18.4625 5.17499,18.4625 4.95624,18.4187 C6.26874,19.2063 7.79999,19.6875 9.41874,19.6875 C14.7125,19.6875 17.6,15.3125 17.6,11.5063 C17.6,11.375 17.6,11.2438 17.6,11.1562 C18.125,10.7188 18.6062,10.2375 19,9.66875 Z" id="Path" fill="#50ABE0"></path>
        </g>
    </g>
</svg>