<svg viewBox="0 0 135 101" xmlns="http://www.w3.org/2000/svg"><defs><linearGradient x1="-8.731%" y1="-139.197%" x2="247.277%" y2="199.45%" id="id-22a"><stop stop-color="#51AFE3" offset="0%"/><stop stop-color="#55B5E6" offset="100%"/></linearGradient><linearGradient x1="-167.958%" y1="-85.257%" x2="224.404%" y2="249.461%" id="id-23b"><stop stop-color="#5BBEEC" offset="0%"/><stop stop-color="#57B8E9" offset="100%"/></linearGradient><linearGradient x1="-24.554%" y1="-2.348%" x2="63.502%" y2="108.461%" id="id-24c"><stop stop-color="#58BAEA" offset="0%"/><stop stop-color="#5ABAEA" offset="100%"/></linearGradient><linearGradient x1="-29.091%" y1="4371.03%" x2="-25.586%" y2="4362.647%" id="id-25d"><stop stop-color="#58BAEA" offset="0%"/><stop stop-color="#5ABAEA" offset="100%"/></linearGradient><linearGradient x1="-405.453%" y1="-136.558%" x2="-108.647%" y2="316.822%" id="id-26e"><stop stop-color="#57B3E5" offset="0%"/><stop stop-color="#59B8E8" offset="100%"/></linearGradient><linearGradient x1="23.432%" y1="-10.704%" x2="102.506%" y2="46.812%" id="id-27f"><stop stop-color="#59B5E6" offset="0%"/><stop stop-color="#5CBAEA" offset="100%"/></linearGradient><linearGradient x1="-150.127%" y1="16.442%" x2="-65.859%" y2="160.977%" id="id-28g"><stop stop-color="#55B3E5" offset="0%"/><stop stop-color="#5BB6E7" offset="100%"/></linearGradient><linearGradient x1="7.554%" y1="12.061%" x2="90.335%" y2="94.887%" id="id-29h"><stop stop-color="#66C7F2" offset="0%"/><stop stop-color="#5CC3F0" offset="100%"/></linearGradient><linearGradient x1="9.516%" y1="7.154%" x2="95.311%" y2="104.133%" id="id-30i"><stop stop-color="#5AB9E9" offset="0%"/><stop stop-color="#54B1E4" offset="100%"/></linearGradient><linearGradient x1="-9.502%" y1="22.153%" x2="78.132%" y2="141.074%" id="id-31j"><stop stop-color="#5DB9E9" offset="0%"/><stop stop-color="#51B3E5" offset="100%"/></linearGradient><linearGradient x1="-17.153%" y1="-136.438%" x2="72.054%" y2="-110.632%" id="id-32k"><stop stop-color="#63C6F1" offset="0%"/><stop stop-color="#5BBBEB" offset="100%"/></linearGradient><linearGradient x1="4.624%" y1="-31.738%" x2="107.247%" y2="30.543%" id="id-33l"><stop stop-color="#53B0E4" offset="0%"/><stop stop-color="#51AFE3" offset="100%"/></linearGradient><linearGradient x1="34.877%" y1="3014.615%" x2="36.355%" y2="3009.118%" id="id-34m"><stop stop-color="#58BAEA" offset="0%"/><stop stop-color="#5ABAEA" offset="100%"/></linearGradient><linearGradient x1="-46.324%" y1="18.074%" x2="-11.811%" y2="78.318%" id="id-35n"><stop stop-color="#5DB6E7" offset="0%"/><stop stop-color="#58B4E6" offset="100%"/></linearGradient><linearGradient x1="14.964%" y1="-7.261%" x2="107.364%" y2="85.166%" id="id-36o"><stop stop-color="#4FAFE3" offset="0%"/><stop stop-color="#50ABE0" offset="100%"/></linearGradient><linearGradient x1="25.621%" y1="2508.503%" x2="30.114%" y2="2507.414%" id="id-37p"><stop stop-color="#66C7F2" offset="0%"/><stop stop-color="#5CC3F0" offset="100%"/></linearGradient><linearGradient x1="-13.808%" y1="16.385%" x2="84.678%" y2="114.868%" id="id-38q"><stop stop-color="#58B7E8" offset="0%"/><stop stop-color="#59B9E9" offset="100%"/></linearGradient><linearGradient x1="-107.149%" y1="5074.105%" x2="-97.376%" y2="5069.237%" id="id-39r"><stop stop-color="#4FAFE3" offset="0%"/><stop stop-color="#50ABE0" offset="100%"/></linearGradient><linearGradient x1="41.133%" y1="-15.81%" x2="82.002%" y2="27.488%" id="id-40s"><stop stop-color="#56BAEA" offset="0%"/><stop stop-color="#52B1E4" offset="100%"/></linearGradient><linearGradient x1="22.131%" y1="27.118%" x2="225.194%" y2="383.227%" id="id-41t"><stop stop-color="#53B3E6" offset="0%"/><stop stop-color="#54B0E4" offset="100%"/></linearGradient><linearGradient x1="36.601%" y1="1108.743%" x2="36.788%" y2="1106.885%" id="id-42u"><stop stop-color="#4FAFE3" offset="0%"/><stop stop-color="#50ABE0" offset="100%"/></linearGradient><linearGradient x1="-10.455%" y1="43.6%" x2="21.218%" y2="91.484%" id="id-43v"><stop stop-color="#59B8E9" offset="0%"/><stop stop-color="#59B5E7" offset="100%"/></linearGradient></defs><g fill="none" fill-rule="evenodd"><path d="M132.612 55.486l-9.771 15.264c5.696-2.998 9.408-8.796 9.771-15.264z" stroke="#53B2E4" stroke-width=".666" fill="url(#id-22a)" fill-rule="nonzero" transform="translate(1 1)"/><path d="M86.987 14.787a24.321 24.321 0 00-4.885-7.251l-4.865 9.07 9.75-1.819z" stroke="#59BBEB" stroke-width=".666" fill="url(#id-23b)" fill-rule="nonzero" transform="translate(1 1)"/><path d="M82.102 7.535C75.694.935 66.11-1.396 57.423 1.531l19.814 15.074 4.865-9.07z" stroke="#59BAEA" stroke-width=".666" fill="url(#id-24c)" fill-rule="nonzero" transform="translate(1 1)"/><path d="M114.119 38.995l.252-2.114h-.378v-.888c-.028-6.15-3.152-11.864-8.293-15.172a17.82 17.82 0 00-17.14-1.192 24.209 24.209 0 00-1.552-4.842l-9.75 1.818 36.861 22.39z" stroke="#5ABAEA" stroke-width=".666" fill="url(#id-25d)" fill-rule="nonzero" transform="translate(1 1)"/><path d="M118.396 37.22a17.527 17.527 0 00-3.333-.34h-.671l-.252 2.115 4.256-1.776z" stroke="#58B6E7" stroke-width=".666" fill="url(#id-26e)" fill-rule="nonzero" transform="translate(1 1)"/><path d="M118.396 37.22l-4.193 1.754 3.942 33.405h.147a17.05 17.05 0 004.633-1.65l9.771-15.264v-.825c-.002-8.515-6.004-15.827-14.3-17.42z" stroke="#5BB7E8" stroke-width=".666" fill="url(#id-27f)" fill-rule="nonzero" transform="translate(1 1)"/><path stroke="#57B4E5" stroke-width=".666" fill="url(#id-28g)" fill-rule="nonzero" d="M36.435 72.4h8.282l-2.076-2.686z" transform="translate(1 1)"/><path stroke="#60C5F1" stroke-width=".666" fill="url(#id-29h)" fill-rule="nonzero" d="M79.502 60.602l34.617-21.607-36.882-22.39z" transform="translate(1 1)"/><path stroke="#58B6E7" stroke-width=".666" fill="url(#id-30i)" fill-rule="nonzero" d="M79.502 60.602L107.116 72.4h10.945l-3.942-33.405z" transform="translate(1 1)"/><path stroke="#55B5E6" stroke-width=".666" fill="url(#id-31j)" fill-rule="nonzero" d="M16.285 47.325l-1.887 25.074h22.037l6.206-2.685z" transform="translate(1 1)"/><path d="M14.796 34.894a25.967 25.967 0 00-2.788 11.564v1.607l4.193-.74-1.405-12.431z" stroke="#5DBEED" stroke-width=".666" fill="url(#id-32k)" fill-rule="nonzero" transform="translate(1 1)"/><path d="M12.155 48.17v.783h-.147c-6.45 0-11.68 5.272-11.68 11.776s5.23 11.776 11.68 11.776h2.327l1.866-25.18-4.046.845z" stroke="#52AFE3" stroke-width=".666" fill="url(#id-33l)" fill-rule="nonzero" transform="translate(1 1)"/><path d="M14.796 34.893l1.405 12.432 40.635-15.18-32.982-7.463a25.933 25.933 0 00-9.058 10.211z" stroke="#5ABAEA" stroke-width=".666" fill="url(#id-34m)" fill-rule="nonzero" transform="translate(1 1)"/><path d="M42.159 16.922a24.335 24.335 0 00-.944 3.764 24.995 24.995 0 00-17.36 3.911l33.086 7.484-14.782-15.159z" stroke="#59B4E6" stroke-width=".666" fill="url(#id-35n)" fill-rule="nonzero" transform="translate(1 1)"/><path stroke="#50ADE2" stroke-width=".666" fill="url(#id-36o)" fill-rule="nonzero" d="M16.285 47.325l26.356 22.39L56.92 32.166z" transform="translate(1 1)"/><path d="M55.871 2.102c-6.488 2.687-11.494 8.09-13.712 14.8l14.677 15.222-.965-30.022z" stroke="#5CC3F0" stroke-width=".666" fill="url(#id-37p)" fill-rule="nonzero" transform="translate(1 1)"/><path stroke="#59B8E9" stroke-width=".666" fill="url(#id-38q)" fill-rule="nonzero" d="M42.641 69.715l36.86-9.113L56.92 32.166z" transform="translate(1 1)"/><path d="M77.237 16.606L57.423 1.53a23.5 23.5 0 00-1.572.571l1.069 30.043 20.317-15.54z" stroke="#50ABE0" stroke-width=".666" fill="url(#id-39r)" fill-rule="nonzero" transform="translate(1 1)"/><path stroke="#54B5E7" stroke-width=".666" fill="url(#id-40s)" fill-rule="nonzero" d="M56.92 32.166l22.582 28.436-2.265-43.996z" transform="translate(1 1)"/><path stroke="#53B3E6" stroke-width=".666" fill="url(#id-41t)" fill-rule="nonzero" d="M44.717 72.4h3.04l-5.116-2.686z" transform="translate(1 1)"/><path stroke="#50ABE0" stroke-width=".666" fill="url(#id-42u)" fill-rule="nonzero" d="M42.641 69.714l5.116 2.685h29.879l1.866-11.797z" transform="translate(1 1)"/><path stroke="#59B6E8" stroke-width=".666" fill="url(#id-43v)" fill-rule="nonzero" d="M77.636 72.4h29.48L79.502 60.601z" transform="translate(1 1)"/><path d="M1.465 100.447V85.295h1.297l5.413 13.76h.04l5.434-13.76h1.297v15.152h-1.034V87.199h-.04c-.203.553-.588 1.556-.953 2.498l-4.278 10.75H7.71l-4.28-10.75c-.365-.942-.628-1.556-.953-2.498h-.04v13.248h-.973zm17.495 0V85.295h8.677v.942h-7.663v5.692h5.758v.942h-5.758v6.634h8.11v.942H18.96zm12.104 0V85.295h3.608c4.947 0 7.34 2.703 7.34 7.576 0 4.833-2.454 7.576-7.34 7.576h-3.608zm1.013-.942h2.818c3.832 0 6.102-2.047 6.102-6.634 0-4.525-2.29-6.634-6.142-6.634h-2.778v13.268zm13.442.942V85.295h1.013v15.152H45.52zm4.054 0l5.312-15.213h1.196l5.311 15.213h-1.074l-1.743-5.078H52.35l-1.744 5.078h-1.034zm3.102-6h5.575l-2.777-8.067h-.04l-2.758 8.068zm21.287 6.287c-3.75 0-6.102-3.256-6.102-7.945 0-4.382 2.372-7.78 6.102-7.78 2.879 0 4.582 1.76 5.291 4.586l-.973.225c-.71-2.56-1.906-3.89-4.338-3.89-3.041 0-5.069 2.764-5.069 6.818 0 4.444 2.048 7.064 5.11 7.064 2.35 0 3.871-1.433 4.56-4.074l.953.225c-.73 2.969-2.696 4.771-5.534 4.771zm8.656-.287V85.295h1.014v14.21h7.501v.942H82.62zm16.787.287c-3.63 0-6.163-3.235-6.163-7.863 0-4.627 2.534-7.863 6.163-7.863 3.608 0 6.143 3.236 6.143 7.863 0 4.628-2.535 7.863-6.143 7.863zm0-.921c2.939 0 5.129-2.6 5.129-6.942 0-4.34-2.19-6.941-5.13-6.941-2.96 0-5.149 2.6-5.149 6.941 0 4.341 2.19 6.942 5.15 6.942zm14.637.921c-3.527 0-5.311-2.416-5.311-5.242V85.295h1.013v9.951c0 2.54 1.318 4.567 4.318 4.567 2.96 0 4.298-1.946 4.298-4.526v-9.992h1.014v10.136c0 2.846-1.784 5.303-5.332 5.303zm9.245-.287V85.295h3.608c4.947 0 7.339 2.703 7.339 7.576 0 4.833-2.453 7.576-7.339 7.576h-3.608zm1.013-.942h2.818c3.832 0 6.103-2.047 6.103-6.634 0-4.525-2.291-6.634-6.143-6.634H124.3v13.268z" fill="#FFF"/></g></svg>