<svg viewBox="0 0 27 28" xmlns="http://www.w3.org/2000/svg"><defs><linearGradient x1="19.639%" y1="0%" x2="107.07%" y2="88.312%" id="id-54a"><stop stop-color="#62C5F1" offset="0%"/><stop stop-color="#50ADE2" offset="100%"/></linearGradient></defs><g fill="none" fill-rule="evenodd"><path d="M18.084 4.492c4.363 2.52 6.544 3.779 7.578 5.221a8.217 8.217 0 010 9.574c-1.034 1.442-3.215 2.702-7.578 5.22-4.363 2.52-6.545 3.78-8.311 3.953a8.218 8.218 0 01-8.29-4.786C.75 22.057.75 19.538.75 14.5c0-5.038 0-7.557.732-9.174A8.218 8.218 0 019.773.54c1.766.174 3.948 1.433 8.31 3.952z" fill="url(#id-54a)" fill-rule="nonzero" opacity=".15" transform="translate(-.5 -.5)"/><path d="M19.034 10.684c.286 1.074.286 3.316.286 3.316s0 2.242-.286 3.316a1.72 1.72 0 01-1.21 1.218c-1.068.288-5.349.288-5.349.288s-4.28 0-5.348-.288a1.72 1.72 0 01-1.21-1.218C5.63 16.242 5.63 14 5.63 14s0-2.242.286-3.316a1.72 1.72 0 011.21-1.218c1.067-.288 5.348-.288 5.348-.288s4.28 0 5.348.288a1.72 1.72 0 011.21 1.218zm-7.959 5.351L14.653 14l-3.578-2.035v4.07z" fill="#50ABE0"/></g></svg>