<svg viewBox="0 0 27 28" xmlns="http://www.w3.org/2000/svg"><defs><linearGradient x1="19.639%" y1="0%" x2="107.07%" y2="88.312%" id="id-49a"><stop stop-color="#62C5F1" offset="0%"/><stop stop-color="#50ADE2" offset="100%"/></linearGradient></defs><g fill="none"><path d="M17.334 3.992c4.363 2.52 6.544 3.779 7.578 5.221a8.217 8.217 0 010 9.574c-1.034 1.442-3.215 2.702-7.578 5.22-4.363 2.52-6.545 3.78-8.311 3.953a8.218 8.218 0 01-8.29-4.786C0 21.557 0 19.038 0 14c0-5.038 0-7.557.732-9.174A8.218 8.218 0 019.023.04c1.766.174 3.948 1.433 8.31 3.952z" fill="url(#id-49a)" opacity=".15"/><path d="M19 9.669c-.525.218-1.05.393-1.663.437a2.827 2.827 0 001.27-1.575 5.514 5.514 0 01-1.838.7 2.817 2.817 0 00-2.056-.918 2.885 2.885 0 00-2.888 2.887c0 .219.044.438.088.656a8.243 8.243 0 01-5.95-3.018 2.754 2.754 0 00-.394 1.443c0 1.006.525 1.881 1.268 2.406-.48 0-.918-.13-1.312-.35v.044c0 1.4 1.006 2.538 2.319 2.8-.263.044-.482.088-.744.088-.175 0-.35 0-.525-.044.35 1.138 1.444 1.969 2.669 2.013-.963.787-2.232 1.224-3.588 1.224-.219 0-.481 0-.7-.043 1.313.787 2.844 1.268 4.463 1.268 5.293 0 8.181-4.375 8.181-8.18v-.35c.525-.438 1.006-.92 1.4-1.488z" fill="#50ABE0"/></g></svg>