<svg viewBox="0 0 27 28" xmlns="http://www.w3.org/2000/svg"><defs><linearGradient x1="19.639%" y1="0%" x2="107.07%" y2="88.312%" id="id-46a"><stop stop-color="#62C5F1" offset="0%"/><stop stop-color="#50ADE2" offset="100%"/></linearGradient></defs><g fill="none" fill-rule="evenodd"><path d="M17.334 3.992c4.363 2.52 6.544 3.779 7.578 5.221a8.217 8.217 0 010 9.574c-1.034 1.442-3.215 2.702-7.578 5.22-4.363 2.52-6.545 3.78-8.311 3.953a8.218 8.218 0 01-8.29-4.786C0 21.557 0 19.038 0 14c0-5.038 0-7.557.732-9.174A8.218 8.218 0 019.023.04c1.766.174 3.948 1.433 8.31 3.952z" fill="url(#id-46a)" fill-rule="nonzero" opacity=".15"/><path d="M10.883 19c-.26-.104-.39-.219-.39-.345 0-.17-.006-.62-.01-1.218-1.991.433-2.411-.96-2.411-.96-.326-.827-.795-1.047-.795-1.047-.65-.444.049-.435.049-.435.718.05 1.096.738 1.096.738.639 1.094 1.676.778 2.084.595.065-.463.25-.778.455-.957-1.59-.181-3.262-.795-3.262-3.539 0-.781.28-1.42.737-1.92-.073-.182-.319-.91.07-1.895 0 0 .602-.193 1.97.734a6.857 6.857 0 011.792-.242 6.83 6.83 0 011.792.242c1.367-.927 1.967-.734 1.967-.734.39.985.145 1.713.07 1.894.46.5.737 1.14.737 1.921 0 2.75-1.674 3.356-3.269 3.533.257.221.486.658.486 1.326 0 .957-.009 1.729-.009 1.964 0 .127-.129.242-.387.344L10.883 19z" fill="#50ABE0"/></g></svg>