<svg viewBox="0 0 28 28" xmlns="http://www.w3.org/2000/svg"><defs><linearGradient x1="19.639%" y1="0%" x2="107.07%" y2="88.312%" id="id-52a"><stop stop-color="#62C5F1" offset="0%"/><stop stop-color="#50ADE2" offset="100%"/></linearGradient></defs><g fill="none"><path d="M18.234 3.992c4.363 2.52 6.545 3.779 7.579 5.221a8.217 8.217 0 010 9.574c-1.034 1.442-3.216 2.702-7.579 5.22-4.363 2.52-6.544 3.78-8.31 3.953a8.218 8.218 0 01-8.291-4.786C.9 21.557.9 19.038.9 14c0-5.038 0-7.557.733-9.174A8.218 8.218 0 019.923.04c1.767.174 3.948 1.433 8.311 3.952z" fill="url(#id-52a)" opacity=".15"/><path d="M10.057 17.944h-2.1V11.25h2.1v6.694zm-1.05-7.613a1.223 1.223 0 01-1.225-1.225c0-.656.525-1.225 1.225-1.225.656 0 1.225.525 1.225 1.225 0 .7-.569 1.225-1.225 1.225zm8.837 7.613h-2.056v-3.238c0-.787 0-1.75-1.094-1.75s-1.225.832-1.225 1.707v3.325h-2.056V11.25h1.925v.919h.044c.262-.525.962-1.094 1.969-1.094 2.1 0 2.493 1.4 2.493 3.194v3.675z" fill="#50ABE0"/></g></svg>